<svg version="1.1" xmlns="http://www.w3.org/2000/svg" xmlns:xlink="http://www.w3.org/1999/xlink" width="384px" height="512px" viewBox="0,0,192,256"><g fill="#2d95fd" fill-rule="nonzero" stroke="none" stroke-width="1" stroke-linecap="butt" stroke-linejoin="miter" stroke-miterlimit="10" stroke-dasharray="" stroke-dashoffset="0" font-family="none" font-weight="none" font-size="none" text-anchor="none" style="mix-blend-mode: normal"><g transform="translate(0,0.33125) scale(0.5,0.5)"><path d="M215.7,499.2c51.3,-64.2 168.3,-219.8 168.3,-307.2c0,-106 -86,-192 -192,-192c-106,0 -192,86 -192,192c0,87.4 117,243 168.3,307.2c12.3,15.3 35.1,15.3 47.4,0zM192,256c-35.3,0 -64,-28.7 -64,-64c0,-35.3 28.7,-64 64,-64c35.3,0 64,28.7 64,64c0,35.3 -28.7,64 -64,64z"></path></g></g></svg>