<svg version="1.1" xmlns="http://www.w3.org/2000/svg" xmlns:xlink="http://www.w3.org/1999/xlink" width="225.000000pt" height="225.000000pt" viewBox="0,0,256,256"><g fill="#ffffff" fill-rule="nonzero" stroke="none" stroke-width="1" stroke-linecap="butt" stroke-linejoin="miter" stroke-miterlimit="10" stroke-dasharray="" stroke-dashoffset="0" font-family="none" font-weight="none" font-size="none" text-anchor="none" style="mix-blend-mode: normal"><g transform="translate(0.1486,0.38295) scale(1.13778,1.13778)"><g transform="translate(0,225) scale(0.1,-0.1)"><path d="M565,1856c-172,-80 -206,-303 -66,-429c60,-54 103,-69 186,-65c92,5 125,22 140,73c17,60 41,100 82,141l37,37l-12,55c-35,168 -214,260 -367,188z"></path><path d="M1464,1857c-63,-30 -120,-96 -139,-161c-8,-27 -15,-54 -15,-59c0,-5 21,-28 48,-52c50,-45 90,-112 99,-169c4,-28 12,-37 36,-45c44,-16 139,-13 181,4c92,39 166,148 166,245c0,59 -35,141 -77,182c-55,52 -99,71 -178,75c-59,3 -78,0 -121,-20z"></path><path d="M1070,1601c-120,-37 -189,-129 -190,-254c0,-85 26,-143 88,-197c64,-57 137,-77 216,-61c134,28 215,126 215,261c1,165 -174,298 -329,251z"></path><path d="M503,1329c-115,-22 -215,-104 -253,-206c-17,-47 -22,-84 -25,-211c-2,-86 0,-165 5,-177c7,-18 28,-26 117,-48c59,-14 135,-28 168,-32c33,-3 70,-8 83,-11c20,-4 22,-1 22,44c0,178 92,333 235,398l54,25l-34,45c-33,42 -65,125 -65,166c0,17 -11,18 -132,17c-73,-1 -152,-5 -175,-10z"></path><path d="M1467,1333c-4,-3 -7,-20 -7,-37c0,-36 -31,-107 -65,-152l-25,-33l53,-24c82,-38 141,-98 184,-185c34,-68 38,-85 41,-169c4,-107 -8,-100 133,-78c93,14 214,48 234,66c5,5 9,81 8,177c-1,145 -4,175 -23,225c-39,104 -139,184 -259,207c-60,11 -264,14 -274,3z"></path><path d="M923,1046c-88,-29 -167,-99 -207,-185c-19,-42 -21,-64 -21,-231v-184l45,-13c152,-46 234,-56 425,-57c166,0 201,3 273,22c45,13 99,30 118,40l36,17l-4,175c-3,155 -6,181 -26,224c-34,75 -84,129 -154,167l-63,34l-190,2c-137,2 -202,-1 -232,-11z"></path></g></g></g></svg>