<svg version="1.1" xmlns="http://www.w3.org/2000/svg" xmlns:xlink="http://www.w3.org/1999/xlink" width="448px" height="512px" viewBox="0,0,224,256"><g fill="#3c72fc" fill-rule="nonzero" stroke="none" stroke-width="1" stroke-linecap="butt" stroke-linejoin="miter" stroke-miterlimit="10" stroke-dasharray="" stroke-dashoffset="0" font-family="none" font-weight="none" font-size="none" text-anchor="none" style="mix-blend-mode: normal"><g transform="scale(0.5,0.5)"><path d="M256,80c0,-17.7 -14.3,-32 -32,-32c-17.7,0 -32,14.3 -32,32v144h-144c-17.7,0 -32,14.3 -32,32c0,17.7 14.3,32 32,32h144v144c0,17.7 14.3,32 32,32c17.7,0 32,-14.3 32,-32v-144h144c17.7,0 32,-14.3 32,-32c0,-17.7 -14.3,-32 -32,-32h-144z"></path></g></g></svg>